<svg width="255" height="244" viewBox="0 0 255 244" fill="none" xmlns="http://www.w3.org/2000/svg">
<path d="M0.5 209H41.5L43.5 237.5C45.1667 239.333 50.9 242.8 60.5 242C70.1 241.2 73.5 239.667 74 239C74 239 77.3521 216.449 79.5 202M79.5 202C79 202.5 73.3 204.5 60.5 204.5C47.7 204.5 41.5 201.833 40 200.5V195.5M79.5 202C79.5 200.243 79.5 197.5 79.5 197.5M40 195.5L41.5 192C41.5 192 79.5 192.5 79.5 193C79.5 193.5 79.5 197.5 79.5 197.5M40 195.5C55.2 201.5 73.5 198.5 79.5 197.5" stroke="#858080"/>
<path d="M68.5 159C75.8333 152.833 90.4 140.1 90 138.5C89.6 136.9 87.1667 120.833 86 113L81.5 93.9999C81.8333 92.4999 83.2 90.2999 86 93.4999C87.3333 99.1666 90.3 110.5 91.5 110.5C93 110.5 93.5 98.4999 93 86.4999C93.1667 85.1666 93.9 82.7999 95.5 83.9999C95.6667 83.6666 96.3 83.6 97.5 86C97.5 92.8333 97.6 106.5 98 106.5C98.5 106.5 99.5 107.5 99.5 104.5C99.5 101.5 98.5 79.4999 101.5 79.9999C102.333 79.3333 104.5 79.5 104.5 85.5C104.5 93 104 107 106 106.5C108 106 111 81.0001 114.5 82.5C115.333 82.1667 116.8 82.6 116 87C115 92.5 113.5 107 113 109M113 109C113.127 110.781 113.39 113.081 113.911 115M113 109L113.911 115M62 167C62 171.4 71.3333 165.167 76 161.5C74.4 162.3 73 171.833 72.5 176.5C72.5 194 72.5 191.5 75 192C77.5 192.5 104 147.5 106 147C107.6 146.6 114.667 140.167 118 137C120 137 128 116 130.5 110.5C132.5 106.1 131.333 104.333 130.5 104C129 103 127 104.5 126.5 104.5C126.1 104.5 121.333 113.167 119 117.5C116.279 120.221 114.756 118.111 113.911 115" stroke="#858080"/>
<path d="M62 167C67.8333 147.333 80.7 107.1 85.5 103.5C87.8333 100 92.9 92.7001 94.5 91.5001C96.5 90.0001 125 80.0001 131 80.5001C132.333 87.6667 138.2 101.8 151 101C159.5 103 175.8 101.7 173 80.5001C184.667 85.1667 209.9 96.6 217.5 105C222.333 114.5 231.9 134.6 231.5 139M231.5 139C231.1 143.4 213.333 145.5 204.5 146C212.167 141.333 228.3 133.4 231.5 139Z" stroke="#858080"/>
<path d="M231 139.5C231.833 142.667 232.5 147 233.3 147" stroke="#858080"/>
<path d="M207 139C207 141.8 204.667 144.5 203.5 145.5C203.5 135.5 201.5 137 200.5 134.5C199.7 132.5 198.5 141 198 146.5H196.5C196.833 143.333 197.6 137.6 198 132C198.5 125 207 135.5 207 139Z" stroke="#858080"/>
<path d="M119.5 19C116.7 20.6 113.333 24.6667 112 26.5C108.4 29.3 107.833 46 108 54C109.167 57.5 112.5 65 116.5 67C120.5 69 124.5 67.8333 126 67V63L118 42.5C116.667 43.8333 113.6 46.5 112 46.5C110 46.5 112 31.5 114 28.5C115.6 26.1 118.333 24.8333 119.5 24.5" stroke="#858080"/>
<path d="M125.5 61C121 53.6666 113.9 34.1 121.5 14.5C124 9.33329 132.6 -0.500047 147 1.49995C158.333 1.49997 180.5 8.6 178.5 37C177.833 44.1667 175.8 59.2 173 62" stroke="#858080"/>
<path d="M167.5 82C164.333 87.3333 155.6 97.1 146 93.5C141.166 88.8333 130.4 76.9 126 66.5C125.333 57.1667 121.5 28 125 28C128.5 28 154.9 24.8 170.5 28C176.5 26.4 174.666 53 173 66.5M167.5 82C169.614 79.4163 172.126 72.9133 173 66.5M167.5 82L173 66.5" stroke="#858080"/>
<path d="M181.5 24C181.1 21.6 176.667 18.6667 174.5 17.5L173 14C186.6 15.6 190 35.6667 190 45.5C190.8 46.7 187.667 56 186 60.5H181.5L179 62.5L174.5 61.5L179 37.5C182.6 35.1 185.167 38.5 186 40.5C187.6 37.7 183.667 28.3333 181.5 24Z" stroke="#858080"/>
<path d="M99.5 242.5L242 238.5L253.5 146L103.5 149L100.418 208M99.5 242.5L93 210.5L100.418 208M99.5 242.5L100.418 208" stroke="#858080"/>
</svg>
